<svg xmlns="http://www.w3.org/2000/svg" xmlns:xlink="http://www.w3.org/1999/xlink" version="1.1"
    id="Layer_1" x="0px" y="0px" viewBox="0 0 353.8 38" style="enable-background:new 0 0 353.8 38;"
    xml:space="preserve">
<style type="text/css">
	.st0{fill:#1A1A1A;}
</style>
<path class="st0" d="M300.6,8.5c-1.7,5.1-3.5,10.2-5.2,15.3c0,0.1,0,0.1,0,0.2c0,0,0,0,0,0c0,0,0,0,0,0h10.7  c-1.8-5.2-3.6-10.5-5.4-15.7C300.6,8.4,300.6,8.5,300.6,8.5L300.6,8.5z"/>
<path class="st0" d="M168.3,26.4c-0.1,0-0.2,0-0.3,0c-1.8,0-3.6,0-5.3,0.1c-1.1,0-2.1,0.3-3.1,0.8c-1,0.5-1.6,1.4-1.6,2.6  c0,0.9,0.3,1.7,1.1,2.2c0.4,0.3,0.9,0.5,1.4,0.6c1.1,0.2,2.1,0.2,3.2,0c1.5-0.3,2.8-1,3.8-2.1c0.5-0.6,0.9-1.3,1-2.1  C168.4,27.7,168.4,27.1,168.3,26.4L168.3,26.4L168.3,26.4z"/>
<path class="st0" d="M38.5,17.4c-2,0.5-3.3,1.7-4,3.6c-0.9,2.3-1,4.6-0.2,6.9c1.2,3.6,4.4,4.7,7.3,4c1.9-0.5,3.2-1.7,4-3.5  c0.5-1.2,0.7-2.4,0.7-3.7c0-1.2-0.2-2.3-0.5-3.3C44.4,17.7,41.2,16.7,38.5,17.4L38.5,17.4z"/>
<path class="st0" d="M120.7,17c0.5,0,1-0.1,1.5-0.2c1.8-0.4,2.9-1.5,3.3-3.3c0.2-0.7,0.2-1.3,0.1-2c-0.2-2-1.3-3.4-3.3-3.9  c-0.6-0.1-1.2-0.2-1.7-0.2c-2.2,0-4.4,0-6.6,0c-0.1,0-0.3,0-0.5,0V17c0.2,0,0.3,0,0.4,0C116.2,17,118.4,17,120.7,17z"/>
<path class="st0" d="M0,0v38h353.8V0H0z M19.5,23c-0.2,0.3-0.2,0.5-0.2,0.9c0,4.1,0,8.3,0,12.4v0.5h-6.2v-0.6c0-4.1,0-8.3,0-12.4  c0-0.3-0.1-0.6-0.2-0.9C9,16.2,5.1,9.5,1.2,2.8c0-0.1-0.1-0.2-0.1-0.2h6.6c0.1,0.1,0.1,0.2,0.1,0.3c2.7,4.9,5.5,9.8,8.2,14.7  c0,0.1,0.1,0.2,0.2,0.3c0.1-0.2,0.2-0.3,0.3-0.5c1.7-3.1,3.5-6.2,5.2-9.3c1-1.8,2-3.7,3.1-5.5h6.6c-1.8,3.2-3.6,6.3-5.4,9.4  C23.8,15.6,21.7,19.3,19.5,23z M51.6,29.6c-1.3,3.5-3.8,5.8-7.3,6.9c-3,1-6.1,0.9-9-0.1c-4-1.4-6.4-4.2-7.4-8.3  c-0.2-1.1-0.3-2.1-0.4-3.1c0-2,0.3-3.9,1.1-5.7c1.6-3.7,4.4-5.9,8.4-6.8c2.6-0.6,5.1-0.4,7.6,0.4c3.5,1.2,5.9,3.5,7.1,7  C52.8,23.1,52.8,26.4,51.6,29.6L51.6,29.6z M78.2,36.9c-1.9,0-3.9,0-5.8,0c-0.1-1.1-0.1-2.2-0.2-3.4c-0.1,0.1-0.2,0.1-0.2,0.2  c-1.8,2.4-4.2,3.5-7.2,3.5c-1.3,0-2.5-0.2-3.6-0.7c-2.4-1-3.8-2.8-4.5-5.2c-0.3-1-0.4-2.1-0.4-3.1V12.5c0.3-0.1,5.5-0.1,6.1,0v14.7  c0,0.6,0.1,1.2,0.3,1.8c0.5,1.6,1.6,2.6,3.3,2.9c0.9,0.2,1.9,0.1,2.8-0.2c1.7-0.6,2.7-1.9,3.1-3.6c0.1-0.5,0.2-1.1,0.2-1.6  c0-4.5,0-8.9,0-13.4v-0.5c0.3-0.1,5.5-0.1,6.1,0L78.2,36.9L78.2,36.9z M97.4,18.2C96.6,18,95.9,18,95.1,18c-2,0.2-3.5,1.2-4.5,3  c-0.6,1-0.8,2.1-0.8,3.2c0,4,0,8,0,12v0.6h-6.1V12.4h5.8c0,1.2,0.1,2.4,0.1,3.7c0,0,0.1,0,0.1,0c0.1-0.1,0.1-0.1,0.2-0.2  c0.3-0.5,0.7-1.1,1.1-1.5c1.4-1.6,3.2-2.3,5.3-2.2c0.4,0,0.8,0.1,1.2,0.1L97.4,18.2L97.4,18.2z M132.2,31c-1,2.6-2.9,4.2-5.4,5.2  c-1.3,0.5-2.7,0.7-4,0.7c-5,0-10,0-15,0h-0.2c0,0,0,0,0,0c0,0,0,0,0,0c0-0.2,0-0.3,0-0.5V2.6H122c1.6,0,3.2,0.2,4.7,0.8  c2.9,1.2,4.5,3.4,5,6.5c0.3,1.8,0.1,3.6-0.8,5.2c-0.8,1.7-2.1,2.9-3.8,3.7c-0.1,0-0.1,0.1-0.2,0.1c0,0,0,0-0.1,0.1  c0.1,0,0.1,0.1,0.2,0.1c3.3,1.1,5.2,3.4,5.8,6.8C133,27.6,132.9,29.4,132.2,31L132.2,31z M151,18.2c-0.2,0-0.4-0.1-0.5-0.1  c-3-0.5-5.9,0.9-6.9,4.3c-0.2,0.6-0.3,1.3-0.3,1.9v12.5h-6.1V12.4h5.8c0,1.3,0.1,2.5,0.1,3.7l0.1,0c0.9-1.8,2.2-3.2,4.2-3.8  c1.1-0.3,2.3-0.4,3.5-0.1V18.2L151,18.2z M174.3,36.9c-1.9,0-3.8,0-5.7,0c-0.1-1.1-0.1-2.1-0.2-3.3c-0.1,0.1-0.1,0.1-0.2,0.2  c-1.2,1.6-2.8,2.5-4.6,3c-2.3,0.6-4.6,0.6-6.9-0.1c-0.6-0.2-1.2-0.5-1.7-0.8c-1.6-1-2.5-2.5-2.8-4.5c-0.1-1.2,0-2.3,0.4-3.5  c0.4-1.2,1.2-2.1,2.3-2.9c1.2-0.9,2.6-1.4,4-1.7c1.9-0.4,3.8-0.6,5.7-0.6h3.5c0.1,0,0.2,0,0.4,0c0-0.7,0-1.3,0-1.9  c0-0.3-0.1-0.6-0.2-0.8c-0.4-1.5-1.4-2.4-2.9-2.9c-1.4-0.4-2.7-0.4-4.1,0c-1.6,0.5-2.6,1.5-2.9,3.2c0,0.1,0,0.1,0,0.2  c0,0,0,0-0.1,0.1h-5.6c0.1-0.4,0.1-0.7,0.1-1c0.6-3.4,2.6-5.5,5.8-6.7c1.9-0.7,3.8-0.9,5.7-0.8c1.4,0.1,2.7,0.3,3.9,0.7  c3.2,1.1,5.1,3.5,5.8,6.8c0.2,0.8,0.2,1.7,0.2,2.5L174.3,36.9L174.3,36.9z M185.6,36.9h-6.1V12.4h6  C185.7,12.8,185.7,36.1,185.6,36.9L185.6,36.9z M182.9,8.3c-0.8,0-1.6-0.1-2.4-0.6c-1.3-0.8-2-2.3-1.8-3.9c0.2-1.5,1.4-2.8,2.9-3.1  c0.3-0.1,0.7-0.1,1-0.2l0,0c1.9,0,3.4,1.1,3.9,2.9C187.2,5.9,185.4,8.3,182.9,8.3L182.9,8.3z M213.5,36.9h-6.1c0-0.2,0-0.4,0-0.6  V22.8c0-0.9-0.1-1.7-0.4-2.6c-0.6-1.8-2-2.8-3.9-2.8c-0.9,0-1.8,0-2.6,0.4c-1.8,0.7-2.8,2.1-3.1,3.9c-0.1,0.4-0.1,0.8-0.1,1.2v13.9  h-6.1V12.4h5.8c0.1,1.1,0.1,2.2,0.2,3.4c0.1-0.1,0.2-0.1,0.2-0.2c1.4-1.9,3.3-3,5.6-3.3c1.6-0.2,3.1-0.2,4.6,0.2  c2.8,0.8,4.5,2.7,5.4,5.5c0.3,1.1,0.5,2.3,0.5,3.5L213.5,36.9L213.5,36.9z M247.7,29.5c-1.4,4-4.3,6.4-8.4,7.4  c-0.7,0.2-1.4,0.2-2.1,0.3c-0.1,0-0.2,0-0.4,0.1c-0.5,0-1,0-1.5,0l0,0c-0.5-0.1-1-0.1-1.5-0.2c-2.1-0.3-4-1-5.7-2.3  c-2-1.5-3.3-3.5-4-5.9c-0.9-3.2-0.8-6.5,0.5-9.6c1.6-3.8,4.6-6.1,8.6-6.9c2.4-0.5,4.9-0.4,7.3,0.4c3.7,1.2,6.1,3.7,7.3,7.4  C248.9,23.3,248.9,26.4,247.7,29.5L247.7,29.5z M275,36.4c0,0.2,0,0.3,0,0.5h-6.1V22.7c0-0.9-0.1-1.7-0.4-2.6  c-0.6-1.7-2-2.8-3.9-2.8c-0.8,0-1.6,0-2.4,0.3c-1.9,0.7-2.9,2.1-3.3,4c-0.1,0.4-0.1,0.8-0.1,1.2c0,4.5,0,8.9,0,13.4v0.6h-6.1  c-0.1-0.3-0.1-23.8,0-24.5h5.8c0.1,1.1,0.1,2.2,0.2,3.4c0.1-0.1,0.2-0.2,0.2-0.2c1.3-1.9,3.2-2.9,5.4-3.3c1.6-0.3,3.3-0.3,4.9,0.2  c2.8,0.8,4.5,2.7,5.4,5.4c0.4,1.1,0.5,2.3,0.5,3.5L275,36.4L275,36.4z M310.5,36.9c-0.9-2.6-1.8-5.2-2.6-7.8h-14.3  c-0.9,2.6-1.8,5.2-2.6,7.8h-6.1c0-0.3,12-33.7,12.4-34.3h7.1c4.1,11.4,8.2,22.8,12.4,34.3H310.5L310.5,36.9z M333,18.2  c-0.5,0-1-0.1-1.5-0.1c-2.7-0.1-5.1,1.5-5.9,4.6c-0.1,0.5-0.2,1.1-0.2,1.6c0,4,0,8.1,0,12.1c0,0.2,0,0.4,0,0.6h-6  c-0.1-0.3-0.1-23.7,0-24.5h5.8c0,1.2,0.1,2.5,0.1,3.8c0.1-0.2,0.2-0.3,0.3-0.4c0.4-0.5,0.7-1.1,1.2-1.6c1.6-1.8,3.7-2.3,6-2  c0.1,0,0.2,0.1,0.3,0.1L333,18.2L333,18.2z M351.6,36.7c-0.5,0-0.9,0.1-1.4,0.1c-1.2,0.1-2.5,0.1-3.7,0c-1.3-0.1-2.5-0.4-3.7-0.9  c-2.5-1.1-3.9-3.1-4.5-5.7c-0.2-1-0.3-2.1-0.3-3.2v-9.6l0,0l-3.6,0c0-1.7,0-3.3,0-4.9h4c0-0.6,0-1.2,0-1.8V5.4  c0.3-0.1,5.1-0.1,5.8,0v7h7.4c0.1,0.4,0.1,4.2,0,4.9c-1.2,0-2.4,0-3.7,0c-1.2,0-2.5,0-3.7,0c0,0.1,0,0.2,0,0.4c0,3.3,0,6.6,0,9.9  c0,0.6,0.1,1.2,0.3,1.8c0.3,1,0.9,1.6,1.9,2c0.6,0.2,1.2,0.3,1.8,0.4c1.1,0.1,2.2,0.1,3.3,0c0.1,0,0.1,0,0.2,0L351.6,36.7  L351.6,36.7z"/>
<path class="st0" d="M234.6,17.4c-2,0.5-3.4,1.8-4.1,3.7c-0.9,2.3-0.9,4.7-0.1,7c1.1,3,3.7,4.4,6.7,4c2.2-0.3,3.7-1.6,4.6-3.7  c0.5-1.2,0.7-2.4,0.7-3.6c0-1.3-0.2-2.5-0.6-3.7C240.4,17.8,237.5,16.7,234.6,17.4L234.6,17.4z"/>
<path class="st0" d="M123.5,21.9c-0.7-0.2-1.4-0.4-2.2-0.4h-7.4c-0.1,0-0.2,0-0.4,0V32h8c0.4,0,0.8,0,1.2-0.1c2-0.3,3.4-1.6,3.8-3.5  c0.2-0.9,0.2-1.8,0.1-2.7C126.4,23.9,125.3,22.5,123.5,21.9L123.5,21.9z"/>
</svg>