<svg width="306" height="287" viewBox="0 0 306 287" fill="none" xmlns="http://www.w3.org/2000/svg">
<path d="M302.076 286.777H224.686C213.495 286.777 203.685 284.088 195.256 278.711C186.826 273.333 180.286 266.067 175.636 256.911C170.985 247.755 168.66 237.581 168.66 226.391C168.66 215.2 170.985 205.099 175.636 196.089C180.286 187.078 186.826 179.884 195.256 174.507C203.685 169.129 213.495 166.44 224.686 166.44H302.076V188.459H224.686C217.71 188.459 211.678 190.203 206.592 193.691C201.505 197.033 197.581 201.539 194.82 207.207C192.058 212.875 190.678 219.269 190.678 226.391C190.678 233.512 192.058 239.979 194.82 245.793C197.581 251.606 201.505 256.257 206.592 259.745C211.678 263.087 217.71 264.759 224.686 264.759H280.058V237.073H217.492V215.055H302.076V286.777Z" fill="#1E1E1E"/>
<path d="M125.35 188.459H22.0181V286.777H0V166.44H125.35V188.459ZM111.18 237.073H32.2641V215.055H111.18V237.073Z" fill="#1E1E1E"/>
<path d="M306 84.5842C306 91.1242 304.038 97.0829 300.114 102.46C296.19 107.692 290.885 111.907 284.2 115.104C277.66 118.302 270.393 119.9 262.4 119.9H168.66V98.1002H262.4C268.358 98.1002 273.445 96.7922 277.66 94.1762C282.02 91.5602 284.2 88.3629 284.2 84.5842V79.1342H212.042C204.048 79.1342 196.782 77.1722 190.242 73.2482C183.702 69.3242 178.47 64.0921 174.546 57.5521C170.622 50.8668 168.66 43.5274 168.66 35.5341V0H190.242V35.5341C190.242 41.6381 192.349 46.7974 196.564 51.0121C200.924 55.2268 206.083 57.3341 212.042 57.3341H284.2V0H306V84.5842Z" fill="#1E1E1E"/>
<path d="M137.122 43.6001C137.122 51.4481 135.16 58.7148 131.236 65.4002C127.312 72.0855 122.008 77.4629 115.322 81.5322C108.782 85.4562 101.516 87.4182 93.5222 87.4182H32.9181V65.8362H93.5222C99.6263 65.8362 104.786 63.6561 109 59.2961C113.36 54.7908 115.54 49.5588 115.54 43.6001C115.54 37.4961 113.36 32.3367 109 28.1221C104.786 23.762 99.6263 21.582 93.5222 21.582H21.582V119.9H0V0H93.5222C101.516 0 108.782 1.962 115.322 5.88601C122.008 9.81002 127.312 15.1147 131.236 21.8001C135.16 28.3401 137.122 35.6068 137.122 43.6001Z" fill="#1E1E1E"/>
</svg>
